<?xml version="1.0" encoding="UTF-8"?><svg id="_レイヤー_2" xmlns="http://www.w3.org/2000/svg" viewBox="0 0 224.16 224.16"><defs><style>.cls-1,.cls-2{fill:none;}.cls-2{stroke:#fff;stroke-miterlimit:10;stroke-width:.5px;}</style></defs><g id="_レイヤー_1-2"><g><g><path class="cls-2" d="M88.02,130.22c3.06-12.51,17.84-37,32.08-40.86"/><path class="cls-2" d="M98.13,118.37c-11.18,15.31-24.73,24.56-25,27.64-.27,3.08-3.78,9.12-25.72,9.12-4.05,0-12.61,2.02-9.14,12.3,3.47,10.28,15.91,12.32,33.78,12.02s55.93-29.27,56.83-35.89"/><path class="cls-2" d="M88.02,174.81c-1.08,20.85,1.34,42.19,1.34,42.19"/><path class="cls-2" d="M163.7,219.1c-3.09-11.77-2.89-80.62,.19-105.5,3.09-24.88-2.7-29.12-9.26-36.45"/><path class="cls-2" d="M118.71,70.91s4.24,4.59,4.94,6.68"/><path class="cls-2" d="M119.91,72.27c-5.74,.15-10.74,1.14-11.96-5.78s-7.52-10.7-5.39-23.67"/><path class="cls-2" d="M100.68,43.31s-.65-5.77-.43-8.29-.54-6.23,1.07-11.35c1.61-5.12,14.15-21.48,36.64-18.17,22.49,3.31,23.15,40.64,9.64,48.59-1.71,1,1.81,17.57,1.81,17.57"/><path class="cls-2" d="M117.58,39.78c-.99-1.94-1.14-5.47,3.48-3.88s4.22,8.2,3.97,11.18-2.29,7.75-4.37,8.2-2.78-1.29-1.59-2.93"/><path class="cls-2" d="M46.67,155.16c-.34-2.57-1.61-6.04-2.59-6.78s-2.78-2.1-3.19-2.84-1.28-.93-1.3,.74"/><path class="cls-2" d="M42.6,150.08s-4.44-4.11-5.14-5.93-5.63-7.58-6.65-8.41-2.45-.25-1.53,2.07,4.49,4.75,4.62,7.68"/><path class="cls-2" d="M36.32,148.04s-3.63-3.68-4.57-5.08-4.82-4.44-6.42-6.19-3.25-2.21-3.07,0,3.1,4.04,3.1,4.04l7.16,8.98"/><path class="cls-2" d="M33.4,149.92s-3.6-5.26-5.56-6.85-5.1-3.1-6.19-3.96-1.29,.71-.61,2.31,2.59,2.79,2.59,2.79c0,0,6.29,5.91,6.37,7.28s.15,1.95,.15,1.95"/><path class="cls-2" d="M32.26,153.98c-2.36-.74-3.78-2.06-5.43-2.54s-6.5-2.89-7.16-2.36-.03,2.13,1.4,2.92,3.53,1.32,3.53,1.32c0,0,4.12,2.31,4.69,3.15s2.78,4.29,8.3,8.12"/><path class="cls-2" d="M78.74,139.45c-2.1-.08-5.73,2.15-6.95,2.06s-4.76-.68-5-.15-.66,8,.48,10.91"/><path class="cls-2" d="M66.78,141.36c-2.98-3.11-6.73-7.55-7.72-8.66s-7.03-4.13-8.57-4.92-2.99-3.35-4.13-3.17-.18,2.78,.51,3.44,3.89,2.68,4.16,3.62"/><path class="cls-2" d="M59.48,136.53c-2.35-.97-5.4-3.02-6.55-4.31s-3.63-1.27-6.26-2.72-2.61-.57-2.24,.63,2.08,2.17,3.38,2.5c0,0,1.96,1.78,3.29,2.08,0,0,1.45,2.53,3.02,3.05,0,0,2.93,3.35,2.93,4.8"/><path class="cls-2" d="M61.05,143.95c-2.05-1.3-3.62-1.03-5.82-1.93s-5.58-2.23-6.52-1.36,.81,2.99,3.89,3.98,7.17,7.47,14.35,6.61"/><path class="cls-2" d="M49.24,126.81c-.15-.89,.15-2.28,1.25-1.41s1.41,2.62,3.23,4.04"/><path class="cls-2" d="M56.31,130.85c.02-.9,.4-1.96,1.21-1.96s1.54,3.81,1.54,3.81"/><path class="cls-2" d="M154.01,76.3c-3.12-2.58-24.73,1.88-29.68,4.98-4.95,3.1-4.23,7.08-4.23,7.08"/></g><rect class="cls-1" width="224.16" height="224.16"/></g></g></svg>